<?xml version="1.0" encoding="UTF-8" standalone="no"?>
<svg
   xmlns:dc="http://purl.org/dc/elements/1.1/"
   xmlns:cc="http://creativecommons.org/ns#"
   xmlns:rdf="http://www.w3.org/1999/02/22-rdf-syntax-ns#"
   xmlns:svg="http://www.w3.org/2000/svg"
   xmlns="http://www.w3.org/2000/svg"
   xmlns:sodipodi="http://sodipodi.sourceforge.net/DTD/sodipodi-0.dtd"
   xmlns:inkscape="http://www.inkscape.org/namespaces/inkscape"
   inkscape:version="1.0 (4035a4fb49, 2020-05-01)"
   sodipodi:docname="cloud-3700227.svg"
   viewBox="0 0 800 800"
   height="800"
   width="800"
   xml:space="preserve"
   id="svg28"
   version="1.1"><metadata
     id="metadata34"><rdf:RDF><cc:Work
         rdf:about=""><dc:format>image/svg+xml</dc:format><dc:type
           rdf:resource="http://purl.org/dc/dcmitype/StillImage" /><dc:title></dc:title></cc:Work></rdf:RDF></metadata><defs
     id="defs32"><clipPath
       id="clipPath44"
       clipPathUnits="userSpaceOnUse"><path
         id="path42"
         d="M 0,600 H 600 V 0 H 0 Z" /></clipPath></defs><sodipodi:namedview
     inkscape:current-layer="g36"
     inkscape:window-maximized="0"
     inkscape:window-y="40"
     inkscape:window-x="10"
     inkscape:cy="373.44032"
     inkscape:cx="544.04438"
     inkscape:zoom="0.97375"
     showgrid="false"
     id="namedview30"
     inkscape:window-height="1024"
     inkscape:window-width="1894"
     inkscape:pageshadow="2"
     inkscape:pageopacity="0"
     guidetolerance="10"
     gridtolerance="10"
     objecttolerance="10"
     borderopacity="1"
     bordercolor="#666666"
     pagecolor="#ffffff" /><g
     transform="matrix(1.3333333,0,0,-1.3333333,0,800)"
     inkscape:label="cloud-3700227"
     inkscape:groupmode="layer"
     id="g36"><g
       id="g38"><g
         clip-path="url(#clipPath44)"
         id="g40"><g
           transform="translate(282.9003,450.9331)"
           id="g46"><path
             id="path48"
             style="fill:#ead988;fill-opacity:1;fill-rule:nonzero;stroke:none"
             d="m 0,0 1.492,0.523 c 9.191,3.222 16.535,11.363 18.71,20.738 0.047,0.199 0.153,0.378 0.309,0.516 l 0.464,0.412 -0.163,0.599 c -0.722,2.644 -1.465,5.267 -2.207,7.796 l -0.727,2.472 -1.131,-2.315 C 15.882,28.975 14.738,27.175 13.143,25.076 10.604,21.733 6.937,19.327 2.817,18.302 L 2.157,18.137 2.068,17.462 C 1.323,11.83 0.701,6.632 0.166,1.572 Z" /></g><g
           transform="translate(294.4506,477.2192)"
           id="g50"><path
             id="path52"
             style="fill:#ead988;fill-opacity:1;fill-rule:nonzero;stroke:none"
             d="m 0,0 c 3.45,4.54 5.045,8.272 4.876,11.409 l -0.007,0.124 -0.037,0.118 c -0.43,1.385 -0.861,2.768 -1.3,4.148 L 2.794,18.124 1.687,15.949 C -0.035,12.564 -2.95,9.895 -6.339,8.607 L -6.355,8.604 -6.957,8.361 -7.046,7.803 C -7.746,3.442 -8.351,-0.572 -8.895,-4.47 l -0.23,-1.645 1.561,0.566 C -4.536,-4.449 -1.92,-2.53 0,0" /></g><g
           transform="translate(295.7543,499.2808)"
           id="g54"><path
             id="path56"
             style="fill:#ead988;fill-opacity:1;fill-rule:nonzero;stroke:none"
             d="m 0,0 c 0.003,0.059 0.015,0.115 0.026,0.171 l 0.052,0.258 -0.081,0.25 C -0.812,3.158 -1.627,5.631 -2.445,8.094 L -3.637,11.681 -4.375,7.974 C -5.497,2.332 -6.57,-3.514 -7.563,-9.401 l -0.377,-2.237 1.905,1.231 C -2.472,-8.108 -0.159,-4.118 0,0" /></g><g
           transform="translate(283.3612,449.0435)"
           id="g58"><path
             id="path60"
             style="fill:#ead988;fill-opacity:1;fill-rule:nonzero;stroke:none"
             d="m 0,0 -0.656,-0.186 -0.067,-0.678 c -0.439,-4.466 -0.796,-8.483 -1.091,-12.28 l -0.074,-0.95 0.946,-0.119 c 0.832,-0.104 1.686,-0.157 2.54,-0.157 v 0 c 5.288,0 10.522,1.973 14.357,5.412 5.233,4.695 8.314,11.151 8.042,16.849 -0.009,0.174 0.033,0.348 0.123,0.515 l 0.175,0.326 -0.08,0.363 c -0.629,2.858 -1.339,5.861 -2.111,8.925 L 21.367,20.942 20.21,18.159 C 16.6,9.465 8.855,2.507 0,0" /></g><g
           transform="translate(453.3013,360.3306)"
           id="g62"><path
             id="path64"
             style="fill:#af87ff;fill-opacity:1;fill-rule:nonzero;stroke:none"
             d="m 0,0 c -3.385,3.671 -7.821,6.513 -12.773,8.31 -21.336,-13.96 -43.824,-24.777 -69.838,-30.651 -78.112,-16.394 -154.364,-22.548 -229.652,-2.34 0.141,-2.976 0.901,-6.106 2.299,-9.486 1.768,-4.279 3.755,-5.269 7.36,-7.065 0.935,-0.465 1.996,-0.994 3.166,-1.644 10.951,-6.086 23.843,-9.657 39.411,-10.918 l 5.685,-0.462 c 34.122,-2.771 61.074,-4.961 91.262,-4.961 3.62,0 7.287,0.032 10.899,0.097 37.632,0.674 75.48,3.799 115.707,9.555 7.703,1.101 15.2,2.315 22.242,5.037 8.17,3.157 13.008,6.708 16.699,12.256 C 9.733,-21.347 8.834,-9.583 0,0" /></g><g
           transform="translate(317.6353,472.0913)"
           id="g66"><path
             id="path68"
             style="fill:#ffa3d9;fill-opacity:1;fill-rule:nonzero;stroke:none"
             d="m 0,0 c -3.018,0.598 -6.234,0.959 -9.56,1.072 l -1.348,0.047 0.347,-1.304 c 1.929,-7.245 3.495,-14.068 4.742,-20.601 11.659,0.596 23.084,2.681 33.943,7.128 C 20.049,-6.869 10.292,-2.036 0,0" /></g><g
           transform="translate(345.7596,458.4334)"
           id="g70"><path
             id="path72"
             style="fill:#ffb970;fill-opacity:1;fill-rule:nonzero;stroke:none"
             d="m 0,0 c -10.859,-4.447 -22.284,-6.532 -33.943,-7.128 1.052,-5.513 1.881,-10.821 2.475,-15.97 0.032,-0.274 -0.053,-0.553 -0.232,-0.764 -3.209,-3.752 -7.021,-6.406 -11.366,-7.944 19.842,1.593 38.933,7.244 54.883,18.646 C 8.553,-8.245 4.54,-3.817 0,0" /></g><g
           transform="translate(283.669,467.6567)"
           id="g74"><path
             id="path76"
             style="fill:#ffa3d9;fill-opacity:1;fill-rule:nonzero;stroke:none"
             d="M 0,0 0.22,1.683 -1.358,1.061 c -4.798,-1.893 -9.26,-4.312 -13.263,-7.192 -2.711,-1.95 -5.247,-4.058 -7.595,-6.296 6.745,-1.062 13.572,-2.049 20.418,-2.791 C -1.263,-10.197 -0.67,-5.121 0,0" /></g><g
           transform="translate(261.4528,455.2296)"
           id="g78"><path
             id="path80"
             style="fill:#ffb970;fill-opacity:1;fill-rule:nonzero;stroke:none"
             d="m 0,0 c -7.172,-6.837 -12.582,-14.904 -15.785,-23.506 14.172,-3.429 29.197,-5.52 44.095,-5.577 -4.072,1.355 -7.563,4.111 -9.435,7.682 -0.086,0.165 -0.125,0.352 -0.111,0.538 0.441,5.891 1.001,11.938 1.654,18.072 C 13.572,-2.049 6.745,-1.062 0,0" /></g><g
           transform="translate(376.5533,423.3501)"
           id="g82"><path
             id="path84"
             style="fill:#fffe8c;fill-opacity:1;fill-rule:nonzero;stroke:none"
             d="m 0,0 c -1.789,0 -3.582,-0.119 -5.328,-0.354 l -1.07,-0.145 0.226,-1.057 c 0.371,-1.729 0.688,-3.527 0.967,-5.497 0.077,-0.547 -0.304,-1.053 -0.856,-1.132 -0.046,-0.006 -0.094,-0.01 -0.141,-0.01 -0.491,0 -0.914,0.37 -0.984,0.861 -1.623,11.449 -4.785,18.088 -10.83,27.802 -0.307,0.493 -0.639,0.971 -0.961,1.455 C -34.927,10.521 -54.018,4.871 -73.86,3.277 -75.407,2.729 -77.019,2.315 -78.7,2.055 c -0.792,-0.123 -1.613,-0.186 -2.439,-0.186 -1.938,0 -3.851,0.328 -5.651,0.927 -14.899,0.058 -29.923,2.149 -44.096,5.578 -1.425,-3.828 -2.415,-7.761 -2.928,-11.739 -0.044,-0.339 -0.255,-0.629 -0.564,-0.776 -0.135,-0.064 -0.278,-0.096 -0.428,-0.096 -0.187,0 -0.369,0.052 -0.528,0.151 -6.47,4.022 -14.155,6.149 -22.223,6.149 -9.917,0 -19.398,-3.219 -26.696,-9.066 -3.571,-2.86 -6.591,-6.343 -9.006,-10.216 70.762,0.191 146.275,-13.864 213.676,12.004 C 14.216,-1.862 7.16,0 0,0" /></g><g
           transform="translate(408.7818,408.6519)"
           id="g86"><path
             id="path88"
             style="fill:#4fff90;fill-opacity:1;fill-rule:nonzero;stroke:none"
             d="m 0,0 c -3.292,3.861 -7.329,7.059 -11.811,9.483 -67.401,-25.868 -142.915,-11.812 -213.676,-12.004 -6.766,-10.849 -8.749,-24.786 -4.521,-36.885 0.114,-0.325 0.054,-0.681 -0.16,-0.951 -0.19,-0.242 -0.476,-0.38 -0.784,-0.38 -0.034,0 -0.068,0.002 -0.102,0.006 -0.908,0.092 -1.841,0.139 -2.772,0.139 -3.588,0 -7.277,-0.706 -10.769,-1.976 17.653,-7.502 36.576,-11.932 55.503,-17.094 66.716,-18.032 143.995,-13.296 198.135,33.245 C 9.396,-16.65 6.316,-7.408 0,0" /></g><g
           transform="translate(428.0865,370.8257)"
           id="g90"><path
             id="path92"
             style="fill:#61d5ff;fill-opacity:1;fill-rule:nonzero;stroke:none"
             d="m 0,0 c -3.83,0 -7.559,-0.596 -11.081,-1.771 -0.102,-0.033 -0.208,-0.05 -0.314,-0.05 -0.266,0 -0.516,0.102 -0.704,0.287 -0.269,0.265 -0.366,0.654 -0.252,1.015 1.269,4.006 1.948,8.008 2.089,11.928 -54.14,-46.541 -131.418,-51.276 -198.134,-33.245 -18.927,5.162 -37.85,9.592 -55.504,17.094 -2.647,-0.963 -5.184,-2.241 -7.459,-3.832 -5.697,-3.987 -10.459,-9.851 -13.77,-16.961 -1.445,-3.102 -2.08,-6.272 -1.92,-9.642 75.289,-20.207 151.541,-14.053 229.653,2.341 26.013,5.874 48.502,16.69 69.838,30.65 C 8.529,-0.767 4.295,0 0,0" /></g><g
           transform="translate(300.6508,438.5962)"
           id="g94"><path
             id="path96"
             style="fill:#ead988;fill-opacity:1;fill-rule:nonzero;stroke:none"
             d="m 0,0 c -4.182,-3.75 -9.843,-5.913 -15.532,-5.935 l -2.744,-0.01 2.108,-1.757 c 2.8,-2.336 6.493,-3.675 10.133,-3.675 0.725,0 1.442,0.055 2.131,0.161 5.719,0.889 10.43,3.446 14.401,7.821 l 0.307,0.338 -0.054,0.454 C 10.285,1.264 9.688,5.231 8.921,9.527 L 8.327,12.857 7.015,9.739 C 5.49,6.117 3.065,2.75 0,0" /></g><g
           transform="translate(454.6997,362.1045)"
           id="g98"><path
             id="path100"
             style="fill:#3f434a;fill-opacity:1;fill-rule:nonzero;stroke:none"
             d="m 0,0 c -8.636,9.366 -22.981,13.443 -35.943,10.515 3.316,13.818 0.3,27.4 -8.499,37.719 -9.79,11.484 -25.742,17.486 -40.674,15.31 -1.944,6.852 -4.881,12.383 -9.306,19.495 -9.394,15.102 -25.419,26.179 -42.867,29.632 -4.42,0.875 -8.941,1.258 -13.463,1.18 0.022,-0.403 -0.039,-0.815 -0.199,-1.195 0.442,-0.943 0.893,-1.882 1.378,-2.805 3.867,-0.004 7.727,-0.356 11.507,-1.104 16.381,-3.242 31.427,-13.642 40.248,-27.821 5.968,-9.593 9.091,-16.142 10.688,-27.414 0.155,-1.094 1.176,-1.858 2.261,-1.699 1.094,0.154 1.854,1.167 1.7,2.26 -0.281,1.983 -0.605,3.826 -0.979,5.568 13.489,1.82 27.829,-3.64 36.662,-14.001 8.621,-10.113 11.086,-23.742 6.761,-37.395 -0.227,-0.717 -0.033,-1.501 0.503,-2.029 0.537,-0.528 1.326,-0.71 2.037,-0.472 12.362,4.121 26.855,0.645 35.244,-8.455 8.496,-9.216 9.359,-20.53 2.369,-31.041 -3.566,-5.36 -8.267,-8.801 -16.227,-11.876 -6.943,-2.684 -14.379,-3.887 -22.022,-4.98 -40.187,-5.75 -77.994,-8.872 -115.583,-9.545 -34.606,-0.618 -64.379,1.8 -102.064,4.861 l -5.685,0.462 c -15.424,1.249 -28.182,4.781 -39.006,10.795 -1.182,0.657 -2.257,1.193 -3.206,1.666 -3.5,1.744 -5.256,2.619 -6.882,6.551 -2.865,6.931 -2.991,12.754 -0.397,18.323 3.237,6.951 7.883,12.678 13.437,16.563 5.153,3.605 11.582,5.628 17.655,5.628 0.899,0 1.792,-0.044 2.67,-0.135 0.679,-0.068 1.349,0.213 1.774,0.75 0.424,0.538 0.544,1.254 0.319,1.9 -5.603,16.033 -0.049,35.375 13.207,45.992 13.255,10.617 33.343,11.815 47.765,2.848 0.579,-0.36 1.3,-0.401 1.914,-0.108 0.614,0.291 1.039,0.876 1.126,1.551 2.009,15.57 11.449,30.462 25.901,40.857 4.479,3.222 9.434,5.788 14.646,7.684 0.004,0.238 0.043,0.484 0.149,0.74 0.132,0.322 0.269,0.657 0.413,0.998 0.384,0.939 0.572,1.932 0.74,2.93 -6.536,-2.069 -12.749,-5.124 -18.284,-9.105 -14.448,-10.392 -24.188,-25.083 -27.074,-40.672 -15.563,8.184 -36.038,6.421 -49.797,-4.601 -13.769,-11.028 -19.96,-30.643 -15.353,-47.624 -6.958,0.038 -14.131,-2.204 -20.064,-6.355 -6.129,-4.288 -11.237,-10.565 -14.77,-18.152 -3.058,-6.565 -2.951,-13.611 0.327,-21.54 2.197,-5.317 5.109,-6.767 8.794,-8.603 0.955,-0.476 1.944,-0.969 3.047,-1.582 11.333,-6.298 24.622,-9.989 40.626,-11.286 l 5.684,-0.462 c 33.766,-2.743 61.191,-4.971 91.477,-4.971 3.614,0 7.271,0.031 10.983,0.097 37.756,0.676 75.726,3.811 116.077,9.585 7.881,1.127 15.563,2.374 22.898,5.208 6.128,2.368 13.071,5.811 18.115,13.393 C 10.735,-23.973 9.704,-10.527 0,0" /></g><g
           transform="translate(299.2866,361.0093)"
           id="g102"><path
             id="path104"
             style="fill:#3f434a;fill-opacity:1;fill-rule:nonzero;stroke:none"
             d="m 0,0 c -3.813,0 -7.51,2.307 -9.141,5.768 -0.47,0.999 -0.042,2.19 0.957,2.661 0.998,0.47 2.19,0.043 2.663,-0.956 1.015,-2.159 3.47,-3.615 5.864,-3.462 2.382,0.153 4.641,1.912 5.374,4.182 0.339,1.051 1.465,1.631 2.517,1.29 C 9.285,9.144 9.862,8.017 9.523,6.966 8.288,3.134 4.618,0.277 0.599,0.019 0.399,0.006 0.199,0 0,0" /></g><g
           transform="translate(429.7834,267.819)"
           id="g106"><path
             id="path108"
             style="fill:#af87ff;fill-opacity:1;fill-rule:nonzero;stroke:none"
             d="m 0,0 c 1.636,5.701 -0.141,11.803 -2.424,17.276 -2.283,5.474 -5.122,10.87 -5.707,16.771 -2.077,-10.618 -4.162,-21.337 -3.916,-32.154 0.066,-2.879 0.587,-6.235 3.11,-7.624 1.784,-0.981 4.113,-0.571 5.742,0.651 C -1.566,-3.858 -0.562,-1.957 0,0" /></g><g
           transform="translate(421.9541,292.7305)"
           id="g110"><path
             id="path112"
             style="fill:#3f434a;fill-opacity:1;fill-rule:nonzero;stroke:none"
             d="m 0,0 c -1.354,-7.585 -2.393,-15.294 -2.219,-22.972 0.074,-3.255 0.753,-5.191 2.075,-5.919 0.976,-0.536 2.502,-0.308 3.579,0.499 1.385,1.04 2.109,2.767 2.471,4.033 C 7.463,-18.937 5.47,-12.984 3.56,-8.404 3.125,-7.362 2.669,-6.322 2.214,-5.282 1.455,-3.55 0.687,-1.794 0,0 m 1.113,-33.19 c -1.137,0 -2.238,0.275 -3.184,0.795 -3.984,2.192 -4.106,7.566 -4.146,9.332 -0.253,11.087 1.885,22.015 3.952,32.583 0.191,0.973 1.047,1.673 2.058,1.614 C 0.783,11.087 1.591,10.321 1.688,9.333 2.13,4.882 3.95,0.725 5.878,-3.678 6.343,-4.739 6.808,-5.801 7.251,-6.865 9.413,-12.047 11.65,-18.845 9.752,-25.463 8.989,-28.121 7.635,-30.24 5.835,-31.591 4.461,-32.622 2.784,-33.19 1.113,-33.19" /></g><g
           transform="translate(184.4141,260.1952)"
           id="g114"><path
             id="path116"
             style="fill:#ffa3d9;fill-opacity:1;fill-rule:nonzero;stroke:none"
             d="m 0,0 c 1.636,5.701 -0.141,11.803 -2.424,17.276 -2.283,5.474 -5.122,10.87 -5.707,16.772 -2.077,-10.619 -4.162,-21.338 -3.916,-32.154 0.066,-2.88 0.587,-6.236 3.11,-7.625 1.784,-0.981 4.113,-0.571 5.742,0.651 C -1.566,-3.858 -0.562,-1.957 0,0" /></g><g
           transform="translate(176.5845,285.1064)"
           id="g118"><path
             id="path120"
             style="fill:#3f434a;fill-opacity:1;fill-rule:nonzero;stroke:none"
             d="m 0,0 c -1.353,-7.587 -2.393,-15.297 -2.218,-22.972 0.074,-3.255 0.753,-5.19 2.075,-5.918 0.976,-0.536 2.501,-0.307 3.578,0.498 1.385,1.04 2.109,2.767 2.472,4.033 C 7.463,-18.937 5.47,-12.984 3.56,-8.404 3.125,-7.361 2.669,-6.321 2.213,-5.28 1.455,-3.549 0.687,-1.794 0,0 m 1.114,-33.189 v 0 c -1.138,0 -2.24,0.275 -3.186,0.795 -3.983,2.192 -4.105,7.565 -4.145,9.331 -0.252,11.082 1.885,22.012 3.952,32.584 0.191,0.973 1.075,1.652 2.057,1.614 0.992,-0.047 1.799,-0.814 1.896,-1.801 0.441,-4.451 2.262,-8.608 4.189,-13.01 0.466,-1.062 0.931,-2.125 1.374,-3.189 2.162,-5.183 4.4,-11.981 2.501,-18.598 -0.763,-2.659 -2.117,-4.778 -3.917,-6.128 -1.375,-1.031 -3.051,-1.598 -4.721,-1.598" /></g><g
           transform="translate(229.7458,255.6319)"
           id="g122"><path
             id="path124"
             style="fill:#fffe8c;fill-opacity:1;fill-rule:nonzero;stroke:none"
             d="m 0,0 c -2.05,11.272 -9.099,21.361 -9.918,32.788 -2.514,-11.214 -5.036,-22.476 -5.907,-33.935 -0.213,-2.815 -0.318,-5.71 0.547,-8.397 0.866,-2.688 2.888,-5.162 5.631,-5.832 3.503,-0.854 7.2,1.545 8.798,4.778 C 0.75,-7.366 0.645,-3.548 0,0" /></g><g
           transform="translate(219.7451,278.748)"
           id="g126"><path
             id="path128"
             style="fill:#3f434a;fill-opacity:1;fill-rule:nonzero;stroke:none"
             d="m 0,0 c -1.71,-8.046 -3.208,-16.231 -3.83,-24.415 -0.193,-2.545 -0.317,-5.231 0.456,-7.633 0.738,-2.291 2.388,-4.058 4.202,-4.501 2.321,-0.567 5.256,1.144 6.531,3.721 1.169,2.363 1.389,5.423 0.674,9.353 C 7.152,-18.631 5.244,-13.847 3.398,-9.22 2.197,-6.21 0.976,-3.147 0,0 m 1.813,-40.666 v 0 c -0.654,0 -1.305,0.077 -1.934,0.23 -3.182,0.778 -5.888,3.522 -7.06,7.162 -0.995,3.09 -0.851,6.35 -0.637,9.162 0.883,11.628 3.459,23.114 5.949,34.221 0.217,0.969 1.109,1.642 2.1,1.557 0.99,-0.073 1.775,-0.861 1.847,-1.852 0.43,-6.006 2.667,-11.614 5.035,-17.551 1.919,-4.81 3.903,-9.784 4.855,-15.022 0.875,-4.806 0.54,-8.68 -1.023,-11.843 -1.794,-3.627 -5.464,-6.064 -9.132,-6.064" /></g><g
           transform="translate(260.3911,142.9444)"
           id="g130"><path
             id="path132"
             style="fill:#ffb970;fill-opacity:1;fill-rule:nonzero;stroke:none"
             d="m 0,0 c -2.05,11.272 -9.099,21.361 -9.918,32.788 -2.514,-11.214 -5.036,-22.476 -5.907,-33.935 -0.213,-2.815 -0.318,-5.71 0.547,-8.397 0.866,-2.688 2.888,-5.162 5.631,-5.832 3.503,-0.854 7.2,1.545 8.798,4.778 C 0.75,-7.366 0.645,-3.548 0,0" /></g><g
           transform="translate(250.3901,166.0605)"
           id="g134"><path
             id="path136"
             style="fill:#3f434a;fill-opacity:1;fill-rule:nonzero;stroke:none"
             d="m 0,0 c -1.71,-8.046 -3.208,-16.231 -3.83,-24.415 -0.193,-2.545 -0.317,-5.231 0.457,-7.633 0.738,-2.292 2.387,-4.058 4.201,-4.501 2.327,-0.569 5.257,1.145 6.531,3.721 1.168,2.363 1.389,5.423 0.674,9.354 C 7.152,-18.631 5.244,-13.847 3.398,-9.22 2.197,-6.209 0.976,-3.147 0,0 m 1.813,-40.666 c 0,0 0.001,0 0,0 -0.654,0 -1.304,0.077 -1.933,0.23 -3.183,0.778 -5.888,3.522 -7.061,7.162 -0.995,3.09 -0.851,6.349 -0.637,9.162 0.883,11.628 3.459,23.114 5.949,34.221 0.217,0.969 1.109,1.636 2.1,1.557 0.99,-0.073 1.775,-0.861 1.847,-1.852 0.43,-6.006 2.667,-11.615 5.036,-17.551 1.918,-4.811 3.902,-9.784 4.855,-15.022 0.874,-4.806 0.539,-8.68 -1.024,-11.842 -1.794,-3.628 -5.464,-6.065 -9.132,-6.065" /></g><g
           transform="translate(280.1576,177.3574)"
           id="g138"><path
             id="path140"
             style="fill:#4fff90;fill-opacity:1;fill-rule:nonzero;stroke:none"
             d="M 0,0 C 4.413,-0.337 8.093,4.027 8.495,8.435 8.897,12.842 6.882,17.098 4.59,20.884 2.299,24.671 -0.364,28.347 -1.495,32.626 -2.862,25.597 -4.23,18.569 -5.598,11.541 -6.077,9.08 -6.542,6.458 -5.615,4.13 -4.71,1.855 -2.441,0.187 0,0" /></g><g
           transform="translate(279.3813,203.2061)"
           id="g142"><path
             id="path144"
             style="fill:#3f434a;fill-opacity:1;fill-rule:nonzero;stroke:none"
             d="m 0,0 -2.858,-14.689 c -0.489,-2.511 -0.808,-4.569 -0.123,-6.29 0.623,-1.565 2.231,-2.748 3.91,-2.875 3.343,-0.267 6.055,3.375 6.351,6.622 0.368,4.039 -1.744,8.125 -3.624,11.233 -0.425,0.7 -0.862,1.397 -1.299,2.095 C 1.558,-2.63 0.748,-1.338 0,0 M 1.258,-27.867 H 1.257 c -0.209,0 -0.421,0.008 -0.633,0.024 -3.194,0.244 -6.136,2.408 -7.321,5.385 -1.175,2.948 -0.546,6.176 -0.088,8.532 l 4.103,21.085 c 0.178,0.915 0.965,1.586 1.897,1.617 0.927,0.043 1.762,-0.587 2,-1.488 0.841,-3.183 2.633,-6.041 4.531,-9.067 0.449,-0.716 0.897,-1.431 1.332,-2.15 2.197,-3.632 4.659,-8.467 4.185,-13.667 -0.45,-4.939 -4.404,-10.271 -10.005,-10.271" /></g><g
           transform="translate(315.6862,218.2145)"
           id="g146"><path
             id="path148"
             style="fill:#4fff90;fill-opacity:1;fill-rule:nonzero;stroke:none"
             d="M 0,0 C 4.413,-0.337 8.093,4.027 8.495,8.435 8.897,12.842 6.882,17.098 4.59,20.885 2.299,24.671 -0.364,28.347 -1.495,32.626 -2.862,25.597 -4.23,18.569 -5.598,11.541 -6.076,9.08 -6.542,6.458 -5.615,4.13 -4.71,1.855 -2.441,0.187 0,0" /></g><g
           transform="translate(314.9102,244.0625)"
           id="g150"><path
             id="path152"
             style="fill:#3f434a;fill-opacity:1;fill-rule:nonzero;stroke:none"
             d="m 0,0 -2.858,-14.689 c -0.49,-2.51 -0.809,-4.567 -0.122,-6.29 0.622,-1.564 2.229,-2.747 3.909,-2.875 3.363,-0.267 6.054,3.377 6.35,6.623 C 7.647,-13.19 5.536,-9.106 3.655,-6 3.23,-5.297 2.792,-4.598 2.354,-3.898 1.556,-2.626 0.746,-1.335 0,0 m 1.258,-27.866 v 0 c -0.21,0 -0.422,0.008 -0.634,0.024 -3.194,0.244 -6.137,2.407 -7.321,5.384 -1.175,2.95 -0.546,6.177 -0.087,8.533 l 4.102,21.084 c 0.178,0.916 0.965,1.586 1.897,1.617 0.912,0.05 1.762,-0.587 2,-1.488 0.841,-3.181 2.632,-6.037 4.528,-9.062 0.449,-0.717 0.899,-1.434 1.334,-2.155 2.198,-3.63 4.66,-8.464 4.187,-13.666 -0.451,-4.939 -4.406,-10.271 -10.006,-10.271" /></g><g
           transform="translate(262.565,234.5366)"
           id="g154"><path
             id="path156"
             style="fill:#ffb970;fill-opacity:1;fill-rule:nonzero;stroke:none"
             d="M 0,0 C 4.413,-0.337 8.093,4.027 8.495,8.435 8.897,12.842 6.882,17.098 4.59,20.884 2.299,24.671 -0.364,28.347 -1.495,32.626 -2.863,25.597 -4.23,18.569 -5.598,11.541 -6.077,9.08 -6.542,6.458 -5.615,4.13 -4.71,1.855 -2.441,0.187 0,0" /></g><g
           transform="translate(261.7891,260.3848)"
           id="g158"><path
             id="path160"
             style="fill:#3f434a;fill-opacity:1;fill-rule:nonzero;stroke:none"
             d="m 0,0 -2.858,-14.689 c -0.49,-2.511 -0.809,-4.568 -0.123,-6.29 0.623,-1.564 2.231,-2.747 3.91,-2.875 3.318,-0.266 6.054,3.377 6.35,6.623 0.368,4.039 -1.743,8.124 -3.624,11.232 C 3.231,-5.3 2.795,-4.604 2.358,-3.906 1.559,-2.631 0.748,-1.338 0,0 M 1.257,-27.867 H 1.256 c -0.209,0 -0.421,0.008 -0.632,0.024 -3.195,0.245 -6.137,2.409 -7.321,5.384 -1.175,2.95 -0.547,6.178 -0.088,8.533 l 4.103,21.085 c 0.178,0.915 0.965,1.586 1.897,1.617 0.952,0.036 1.762,-0.587 2,-1.488 0.841,-3.184 2.634,-6.043 4.532,-9.07 0.448,-0.715 0.896,-1.429 1.33,-2.147 2.198,-3.631 4.66,-8.466 4.186,-13.666 -0.45,-4.94 -4.404,-10.272 -10.006,-10.272" /></g><g
           transform="translate(417.5137,190.1951)"
           id="g162"><path
             id="path164"
             style="fill:#af87ff;fill-opacity:1;fill-rule:nonzero;stroke:none"
             d="M 0,0 C 4.413,-0.337 8.093,4.027 8.495,8.435 8.897,12.842 6.882,17.098 4.59,20.884 2.299,24.671 -0.364,28.347 -1.495,32.626 -2.863,25.597 -4.23,18.569 -5.598,11.541 -6.076,9.08 -6.542,6.458 -5.615,4.13 -4.71,1.855 -2.441,0.187 0,0" /></g><g
           transform="translate(416.7373,216.043)"
           id="g166"><path
             id="path168"
             style="fill:#3f434a;fill-opacity:1;fill-rule:nonzero;stroke:none"
             d="m 0,0 -2.858,-14.689 c -0.489,-2.511 -0.808,-4.569 -0.122,-6.29 0.622,-1.564 2.229,-2.747 3.909,-2.875 3.363,-0.272 6.054,3.378 6.35,6.623 0.369,4.038 -1.742,8.124 -3.623,11.232 -0.425,0.701 -0.862,1.398 -1.3,2.097 C 1.558,-2.628 0.747,-1.336 0,0 m 1.258,-27.866 v 0 c -0.21,0 -0.422,0.008 -0.634,0.024 -3.194,0.244 -6.137,2.407 -7.321,5.384 -1.173,2.949 -0.546,6.176 -0.087,8.532 l 4.102,21.085 c 0.178,0.915 0.965,1.586 1.897,1.617 0.928,0.045 1.762,-0.587 2,-1.488 0.841,-3.182 2.633,-6.04 4.53,-9.065 0.449,-0.717 0.898,-1.432 1.333,-2.152 2.198,-3.632 4.66,-8.467 4.186,-13.666 -0.451,-4.939 -4.406,-10.271 -10.006,-10.271" /></g><g
           transform="translate(292.6273,256.645)"
           id="g170"><path
             id="path172"
             style="fill:#4fff90;fill-opacity:1;fill-rule:nonzero;stroke:none"
             d="M 0,0 C 1.488,-2.393 5.142,-3.519 7.229,-1.626 9.313,0.264 8.721,3.62 7.961,6.329 5.911,13.638 3.861,20.948 1.811,28.258 0.928,21.799 0.046,15.341 -0.837,8.882 -1.248,5.872 -1.604,2.58 0,0" /></g><g
           transform="translate(295.1147,275.084)"
           id="g174"><path
             id="path176"
             style="fill:#3f434a;fill-opacity:1;fill-rule:nonzero;stroke:none"
             d="m 0,0 -1.343,-9.827 c -0.393,-2.88 -0.647,-5.624 0.554,-7.557 0.589,-0.947 1.822,-1.634 2.933,-1.635 0.514,0 0.936,0.147 1.254,0.436 0.987,0.895 1.035,2.78 0.15,5.933 z M 2.144,-23.019 H 2.143 c -2.476,10e-4 -5.019,1.416 -6.329,3.524 -2.061,3.316 -1.495,7.465 -1.12,10.209 l 2.642,19.335 c 0.128,0.938 0.901,1.68 1.847,1.745 0.938,0.063 1.81,-0.523 2.066,-1.435 L 7.4,-11.57 c 0.537,-1.915 1.964,-7.003 -1.315,-9.976 -1.062,-0.963 -2.424,-1.473 -3.941,-1.473" /></g><g
           transform="translate(360.0011,175.4133)"
           id="g178"><path
             id="path180"
             style="fill:#61d5ff;fill-opacity:1;fill-rule:nonzero;stroke:none"
             d="M 0,0 C 2.211,-3.556 7.641,-5.229 10.743,-2.416 13.839,0.392 12.96,5.379 11.831,9.404 8.784,20.267 5.738,31.13 2.691,41.992 1.38,32.395 0.068,22.797 -1.243,13.199 -1.854,8.726 -2.383,3.834 0,0" /></g><g
           transform="translate(363.3691,207.5859)"
           id="g182"><path
             id="path184"
             style="fill:#3f434a;fill-opacity:1;fill-rule:nonzero;stroke:none"
             d="m 0,0 -2.63,-19.244 c -0.609,-4.462 -0.995,-8.727 0.96,-11.873 1.058,-1.7 3.19,-2.888 5.185,-2.888 h 10e-4 c 1.012,0 1.858,0.302 2.515,0.898 2.325,2.109 1.403,6.602 0.506,9.798 z M 3.516,-38.005 H 3.515 c -3.357,0 -6.805,1.92 -8.581,4.776 -2.66,4.278 -2.24,9.312 -1.527,14.526 l 3.935,28.793 c 0.128,0.939 0.898,1.659 1.844,1.724 0.953,0.056 1.807,-0.542 2.063,-1.455 l 9.14,-32.588 c 0.754,-2.687 2.756,-9.826 -1.67,-13.841 -1.397,-1.266 -3.196,-1.935 -5.203,-1.935" /></g><g
           transform="translate(201.0932,187.9782)"
           id="g186"><path
             id="path188"
             style="fill:#ffa3d9;fill-opacity:1;fill-rule:nonzero;stroke:none"
             d="M 0,0 C 2.211,-3.556 7.641,-5.229 10.743,-2.416 13.839,0.392 12.96,5.379 11.831,9.404 8.784,20.267 5.738,31.129 2.691,41.992 1.38,32.394 0.068,22.797 -1.243,13.199 -1.854,8.726 -2.383,3.834 0,0" /></g><g
           transform="translate(204.4609,220.1504)"
           id="g190"><path
             id="path192"
             style="fill:#3f434a;fill-opacity:1;fill-rule:nonzero;stroke:none"
             d="m 0,0 -2.629,-19.243 c -0.61,-4.462 -0.996,-8.728 0.96,-11.873 1.057,-1.701 3.189,-2.889 5.184,-2.889 1.013,0 1.86,0.302 2.517,0.898 2.325,2.109 1.402,6.603 0.506,9.799 z m 3.515,-38.005 v 0 c -3.357,0 -6.806,1.92 -8.581,4.777 -2.659,4.277 -2.239,9.311 -1.526,14.526 l 3.934,28.792 c 0.128,0.939 0.898,1.659 1.844,1.724 0.941,0.059 1.807,-0.542 2.063,-1.455 l 9.14,-32.587 c 0.754,-2.687 2.757,-9.828 -1.67,-13.842 -1.396,-1.266 -3.196,-1.935 -5.204,-1.935" /></g><g
           transform="translate(319.2478,141.0782)"
           id="g194"><path
             id="path196"
             style="fill:#61d5ff;fill-opacity:1;fill-rule:nonzero;stroke:none"
             d="m 0,0 c 0.465,-3.061 1.715,-6.662 4.746,-7.293 1.801,-0.376 3.697,0.539 4.879,1.949 1.182,1.409 1.749,3.237 2.051,5.052 C 12.748,6.166 10.787,12.731 8.39,18.823 5.993,24.916 3.109,30.925 2.213,37.41 0.166,25.031 -1.884,12.405 0,0" /></g><g
           transform="translate(321.9502,168.7939)"
           id="g198"><path
             id="path200"
             style="fill:#3f434a;fill-opacity:1;fill-rule:nonzero;stroke:none"
             d="m 0,0 c -1.315,-9.104 -2.104,-18.337 -0.725,-27.416 0.235,-1.544 1.014,-5.184 3.177,-5.635 0.947,-0.197 2.154,0.341 2.938,1.276 0.781,0.931 1.307,2.27 1.611,4.095 1.027,6.189 -1.028,12.6 -3.174,18.055 C 3.369,-8.459 2.892,-7.297 2.415,-6.133 1.59,-4.121 0.754,-2.081 0,0 m 2.873,-37.094 v 0 c -0.418,0 -0.834,0.043 -1.238,0.127 -3.299,0.689 -5.542,3.867 -6.315,8.95 -1.949,12.839 0.169,25.65 2.217,38.038 0.162,0.975 1.015,1.721 2,1.673 0.989,-0.013 1.819,-0.747 1.955,-1.726 0.689,-4.985 2.6,-9.647 4.624,-14.583 0.485,-1.182 0.968,-2.362 1.434,-3.545 2.346,-5.965 4.584,-13.026 3.396,-20.175 -0.424,-2.551 -1.238,-4.517 -2.491,-6.01 -1.441,-1.72 -3.528,-2.749 -5.582,-2.749" /></g><g
           transform="translate(379.0881,236.6693)"
           id="g202"><path
             id="path204"
             style="fill:#af87ff;fill-opacity:1;fill-rule:nonzero;stroke:none"
             d="m 0,0 c 0.465,-3.061 1.715,-6.662 4.746,-7.294 1.801,-0.375 3.697,0.54 4.879,1.95 1.182,1.409 1.749,3.237 2.051,5.052 C 12.748,6.166 10.787,12.731 8.39,18.823 5.993,24.916 3.109,30.925 2.213,37.41 0.166,25.031 -1.884,12.405 0,0" /></g><g
           transform="translate(381.791,264.3857)"
           id="g206"><path
             id="path208"
             style="fill:#3f434a;fill-opacity:1;fill-rule:nonzero;stroke:none"
             d="m 0,0 c -1.315,-9.106 -2.104,-18.34 -0.726,-27.417 0.235,-1.544 1.014,-5.184 3.177,-5.635 0.939,-0.196 2.155,0.342 2.94,1.277 0.78,0.93 1.306,2.269 1.609,4.093 1.027,6.194 -1.027,12.603 -3.174,18.056 C 3.367,-8.458 2.89,-7.294 2.412,-6.129 1.588,-4.118 0.753,-2.08 0,0 m 2.871,-37.094 v 0 c -0.417,0 -0.833,0.042 -1.236,0.126 -3.301,0.689 -5.543,3.867 -6.316,8.95 -1.949,12.836 0.17,25.649 2.218,38.039 0.161,0.975 1.012,1.694 2,1.673 0.989,-0.013 1.819,-0.747 1.955,-1.726 0.688,-4.984 2.599,-9.645 4.621,-14.58 0.486,-1.183 0.97,-2.365 1.436,-3.549 2.346,-5.962 4.585,-13.022 3.396,-20.175 -0.422,-2.55 -1.237,-4.516 -2.49,-6.01 -1.443,-1.72 -3.53,-2.748 -5.584,-2.748" /></g><g
           transform="translate(345.6192,256.3306)"
           id="g210"><path
             id="path212"
             style="fill:#61d5ff;fill-opacity:1;fill-rule:nonzero;stroke:none"
             d="m 0,0 c 0.465,-3.061 1.715,-6.662 4.746,-7.294 1.801,-0.375 3.697,0.54 4.879,1.95 1.182,1.409 1.749,3.237 2.051,5.052 C 12.748,6.166 10.787,12.731 8.39,18.823 5.993,24.916 3.109,30.925 2.213,37.41 0.166,25.031 -1.884,12.405 0,0" /></g><g
           transform="translate(348.3213,284.0479)"
           id="g214"><path
             id="path216"
             style="fill:#3f434a;fill-opacity:1;fill-rule:nonzero;stroke:none"
             d="m 0,0 c -1.315,-9.104 -2.104,-18.338 -0.725,-27.417 0.235,-1.544 1.014,-5.185 3.177,-5.636 0.135,-0.028 0.277,-0.042 0.42,-0.042 0.858,0 1.847,0.518 2.519,1.319 0.78,0.929 1.306,2.268 1.61,4.094 1.027,6.19 -1.027,12.601 -3.174,18.055 -0.458,1.164 -0.933,2.325 -1.41,3.488 C 1.591,-4.125 0.754,-2.083 0,0 M 2.872,-37.095 H 2.871 c -0.417,0 -0.832,0.042 -1.235,0.126 -3.301,0.689 -5.543,3.867 -6.316,8.952 -1.949,12.838 0.169,25.648 2.217,38.037 0.161,0.975 1.001,1.705 2,1.673 C 0.525,11.68 1.356,10.946 1.492,9.967 2.181,4.981 4.094,0.316 6.118,-4.622 c 0.484,-1.18 0.967,-2.358 1.432,-3.54 2.346,-5.964 4.584,-13.025 3.396,-20.175 -0.424,-2.553 -1.239,-4.518 -2.491,-6.011 -1.442,-1.719 -3.53,-2.747 -5.583,-2.747" /></g><g
           transform="translate(159.2173,299.8018)"
           id="g218"><path
             id="path220"
             style="fill:#fffe8c;fill-opacity:1;fill-rule:nonzero;stroke:none"
             d="m 0,0 c -0.08,0.522 -0.975,0.522 -1.055,0 -0.504,-3.303 -0.294,-6.817 -0.183,-10.145 0.03,-0.915 1.391,-0.916 1.422,0 C 0.294,-6.816 0.504,-3.303 0,0" /></g><g
           transform="translate(189.7635,290.1362)"
           id="g222"><path
             id="path224"
             style="fill:#ffa3d9;fill-opacity:1;fill-rule:nonzero;stroke:none"
             d="m 0,0 c -0.296,1.99 -3.772,1.544 -3.545,-0.48 0.594,-5.297 1.259,-10.523 2.249,-15.762 0.335,-1.773 3.301,-1.387 3.169,0.429 C 1.486,-10.495 0.785,-5.272 0,0" /></g><g
           transform="translate(204.4777,263.6564)"
           id="g226"><path
             id="path228"
             style="fill:#ffa3d9;fill-opacity:1;fill-rule:nonzero;stroke:none"
             d="m 0,0 c -0.068,1.434 -2.289,1.449 -2.242,0 0.181,-5.57 0.511,-11.108 0.913,-16.667 0.08,-1.11 1.758,-1.139 1.75,0 C 0.377,-11.1 0.264,-5.56 0,0" /></g><g
           transform="translate(161.4546,251.8673)"
           id="g230"><path
             id="path232"
             style="fill:#ffa3d9;fill-opacity:1;fill-rule:nonzero;stroke:none"
             d="m 0,0 c -0.144,0.872 -1.654,0.679 -1.558,-0.211 0.541,-4.992 1.015,-9.968 1.897,-14.914 0.182,-1.021 1.925,-0.798 1.826,0.247 C 1.69,-9.876 0.816,-4.956 0,0" /></g><g
           transform="translate(176.6011,184.3225)"
           id="g234"><path
             id="path236"
             style="fill:#ffa3d9;fill-opacity:1;fill-rule:nonzero;stroke:none"
             d="m 0,0 c 0.013,-4.251 0.229,-8.428 0.558,-12.667 0.136,-1.753 2.608,-1.763 2.735,0 C 3.596,-8.427 3.786,-4.25 3.773,0 3.766,2.428 -0.007,2.432 0,0" /></g><g
           transform="translate(197.7434,171.6564)"
           id="g238"><path
             id="path240"
             style="fill:#ffa3d9;fill-opacity:1;fill-rule:nonzero;stroke:none"
             d="m 0,0 c 0,-2.9 0.173,-5.773 0.355,-8.667 0.102,-1.617 2.414,-1.62 2.516,0 C 3.054,-5.772 3.227,-2.901 3.227,0 3.227,2.076 0,2.08 0,0" /></g><g
           transform="translate(206.4881,106.9897)"
           id="g242"><path
             id="path244"
             style="fill:#ffa3d9;fill-opacity:1;fill-rule:nonzero;stroke:none"
             d="m 0,0 c -0.066,0.583 -0.982,0.602 -0.93,0 0.385,-4.455 0.906,-8.891 1.416,-13.333 0.055,-0.48 0.808,-0.497 0.765,0 C 0.871,-8.883 0.505,-4.437 0,0" /></g><g
           transform="translate(236.4126,128.9897)"
           id="g246"><path
             id="path248"
             style="fill:#ffb970;fill-opacity:1;fill-rule:nonzero;stroke:none"
             d="m 0,0 c -0.112,2.215 -3.333,2.219 -3.445,0 -0.214,-4.237 -0.448,-8.447 0.027,-12.667 0.245,-2.175 3.145,-2.18 3.391,0 C 0.448,-8.448 0.213,-4.235 0,0" /></g><g
           transform="translate(214.1496,139.6564)"
           id="g250"><path
             id="path252"
             style="fill:#ffa3d9;fill-opacity:1;fill-rule:nonzero;stroke:none"
             d="m 0,0 c -0.13,0.977 -1.637,1.048 -1.586,0 0.125,-2.547 0.218,-5.042 0.642,-7.559 0.161,-0.953 1.678,-0.713 1.665,0.226 C 0.687,-4.86 0.326,-2.45 0,0" /></g><g
           transform="translate(239.7537,214.9897)"
           id="g254"><path
             id="path256"
             style="fill:#ffb970;fill-opacity:1;fill-rule:nonzero;stroke:none"
             d="m 0,0 c -0.223,-4.23 -0.617,-8.442 -0.284,-12.667 0.156,-1.971 3.291,-2.735 3.706,-0.501 C 4.232,-8.813 4.307,-4.419 4.539,0 4.693,2.919 0.153,2.911 0,0" /></g><g
           transform="translate(217.8084,229.6564)"
           id="g258"><path
             id="path260"
             style="fill:#ffa3d9;fill-opacity:1;fill-rule:nonzero;stroke:none"
             d="m 0,0 c 0.041,-2.197 -0.002,-4.323 0.501,-6.472 0.396,-1.694 3.031,-1.695 3.428,0 C 4.432,-4.322 4.389,-2.199 4.43,0 4.482,2.85 -0.053,2.855 0,0" /></g><g
           transform="translate(249.7459,290.3231)"
           id="g262"><path
             id="path264"
             style="fill:#ffb970;fill-opacity:1;fill-rule:nonzero;stroke:none"
             d="m 0,0 c -0.212,2.212 -3.233,2.217 -3.445,0 -0.407,-4.239 -0.351,-8.427 -0.028,-12.667 0.172,-2.249 3.329,-2.253 3.5,0 C 0.35,-8.429 0.406,-4.237 0,0" /></g><g
           transform="translate(240.2863,273.6564)"
           id="g266"><path
             id="path268"
             style="fill:#ffb970;fill-opacity:1;fill-rule:nonzero;stroke:none"
             d="m 0,0 c -0.074,1.193 -1.955,1.19 -1.859,0 0.251,-3.117 0.509,-6.226 0.858,-9.333 0.103,-0.92 1.506,-0.972 1.476,0 C 0.379,-6.217 0.194,-3.112 0,0" /></g><g
           transform="translate(257.186,224.3231)"
           id="g270"><path
             id="path272"
             style="fill:#ffb970;fill-opacity:1;fill-rule:nonzero;stroke:none"
             d="m 0,0 c -0.36,-5.785 -0.797,-11.535 -0.585,-17.333 0.069,-1.869 2.642,-1.784 2.844,0 C 2.914,-11.566 2.923,-5.798 3.008,0 3.036,1.949 0.119,1.918 0,0" /></g><g
           transform="translate(251.552,188.3231)"
           id="g274"><path
             id="path276"
             style="fill:#ffb970;fill-opacity:1;fill-rule:nonzero;stroke:none"
             d="m 0,0 c -0.027,-2.689 0.101,-5.323 0.355,-8 0.177,-1.861 2.722,-1.865 2.899,0 0.254,2.677 0.382,5.311 0.355,8 C 3.586,2.322 0.023,2.326 0,0" /></g><g
           transform="translate(291.9309,170.3231)"
           id="g278"><path
             id="path280"
             style="fill:#4fff90;fill-opacity:1;fill-rule:nonzero;stroke:none"
             d="m 0,0 c -0.083,0.716 -1.137,0.758 -1.148,0 -0.07,-4.471 -0.178,-8.884 0.311,-13.333 0.127,-1.162 1.847,-1.226 1.859,0 C 1.066,-8.847 0.514,-4.451 0,0" /></g><g
           transform="translate(291.8931,124.3231)"
           id="g282"><path
             id="path284"
             style="fill:#4fff90;fill-opacity:1;fill-rule:nonzero;stroke:none"
             d="m 0,0 c -0.156,1.507 -2.41,1.582 -2.406,0 0.009,-4.378 -0.018,-8.682 0.578,-13.023 0.211,-1.543 2.585,-1.09 2.631,0.356 C 0.939,-8.411 0.436,-4.23 0,0" /></g><g
           transform="translate(282.4113,231.9472)"
           id="g286"><path
             id="path288"
             style="fill:#4fff90;fill-opacity:1;fill-rule:nonzero;stroke:none"
             d="m 0,0 c -0.168,1.044 -1.941,1.045 -2.109,0 -0.257,-1.59 -0.905,-3.472 -0.103,-4.967 0.469,-0.872 1.846,-0.872 2.314,0 C 0.905,-3.472 0.257,-1.59 0,0" /></g><g
           transform="translate(276.7638,280.7094)"
           id="g290"><path
             id="path292"
             style="fill:#ffb970;fill-opacity:1;fill-rule:nonzero;stroke:none"
             d="M 0,0 C -0.364,1.746 -3.199,0.997 -2.689,-0.741 -2.4,-1.729 -2.05,-2.657 -1.646,-3.603 -1.211,-4.62 0.535,-4.108 0.443,-3.037 0.355,-2.005 0.211,-1.015 0,0" /></g><g
           transform="translate(306.3963,212.3107)"
           id="g294"><path
             id="path296"
             style="fill:#61d5ff;fill-opacity:1;fill-rule:nonzero;stroke:none"
             d="m 0,0 c -0.434,1.159 -1.418,1.935 -2.7,1.763 -1.222,-0.165 -2.099,-1.182 -2.134,-2.417 -0.052,-1.83 0.568,-3.436 1.286,-5.077 0.372,-0.849 1.577,-1.208 2.409,-0.98 0.954,0.262 1.487,1.113 1.565,2.057 C 0.556,-3.1 0.555,-1.483 0,0" /></g><g
           transform="translate(329.3275,206.6957)"
           id="g298"><path
             id="path300"
             style="fill:#4fff90;fill-opacity:1;fill-rule:nonzero;stroke:none"
             d="m 0,0 c -0.228,0.483 -1.047,0.483 -1.275,0 -1.582,-3.352 -0.599,-8.131 -0.429,-11.706 0.065,-1.371 2.068,-1.374 2.133,0 C 0.599,-8.131 1.582,-3.352 0,0" /></g><g
           transform="translate(310.5428,186.9897)"
           id="g302"><path
             id="path304"
             style="fill:#4fff90;fill-opacity:1;fill-rule:nonzero;stroke:none"
             d="m 0,0 c -0.049,0.668 -0.99,0.669 -1.039,0 -0.166,-2.249 -0.283,-4.413 -0.164,-6.667 0.046,-0.879 1.321,-0.88 1.367,0 C 0.283,-4.414 0.166,-2.248 0,0" /></g><g
           transform="translate(353.199,167.6564)"
           id="g306"><path
             id="path308"
             style="fill:#61d5ff;fill-opacity:1;fill-rule:nonzero;stroke:none"
             d="m 0,0 c -0.161,1.509 -2.191,1.512 -2.352,0 -0.24,-2.257 -0.306,-4.408 -0.082,-6.667 0.161,-1.615 2.355,-1.618 2.516,0 C 0.307,-4.409 0.24,-2.256 0,0" /></g><g
           transform="translate(311.9855,146.9897)"
           id="g310"><path
             id="path312"
             style="fill:#4fff90;fill-opacity:1;fill-rule:nonzero;stroke:none"
             d="M 0,0 C -0.064,0.808 -1.194,0.81 -1.258,0 -1.47,-2.692 -1.516,-5.303 -1.367,-8 -1.315,-8.949 0.057,-8.951 0.109,-8 0.258,-5.302 0.212,-2.692 0,0" /></g><g
           transform="translate(310.0835,98.4903)"
           id="g314"><path
             id="path316"
             style="fill:#4fff90;fill-opacity:1;fill-rule:nonzero;stroke:none"
             d="m 0,0 c -0.525,-2.491 -1.13,-4.968 -1.41,-7.501 -0.086,-0.774 1.155,-0.914 1.342,-0.181 0.615,2.41 0.904,4.89 1.281,7.348 C 1.333,0.447 0.17,0.806 0,0" /></g><g
           transform="translate(274.9422,91.9545)"
           id="g318"><path
             id="path320"
             style="fill:#ffb970;fill-opacity:1;fill-rule:nonzero;stroke:none"
             d="m 0,0 c -0.199,-0.62 -0.422,-1.237 -0.576,-1.87 -0.176,-0.728 -0.199,-1.321 -0.091,-2.059 0.147,-1.005 1.596,-1.02 2.05,-0.268 0.709,1.175 0.705,2.563 0.819,3.899 C 2.314,1.009 0.37,1.155 0,0" /></g><g
           transform="translate(365.2982,287.735)"
           id="g322"><path
             id="path324"
             style="fill:#61d5ff;fill-opacity:1;fill-rule:nonzero;stroke:none"
             d="m 0,0 c -0.444,0.966 -2.106,0.966 -2.55,0 -1.195,-2.6 -0.497,-5.995 -0.229,-8.745 0.189,-1.932 2.819,-1.935 3.008,0 C 0.498,-5.995 1.195,-2.6 0,0" /></g><g
           transform="translate(327.0623,295.6564)"
           id="g326"><path
             id="path328"
             style="fill:#61d5ff;fill-opacity:1;fill-rule:nonzero;stroke:none"
             d="m 0,0 c -0.049,1.337 -2.029,1.339 -2.078,0 -0.18,-4.925 -0.162,-9.745 0.082,-14.667 0.061,-1.23 1.853,-1.233 1.914,0 C 0.161,-9.744 0.18,-4.924 0,0" /></g><g
           transform="translate(316.8853,274.3231)"
           id="g330"><path
             id="path332"
             style="fill:#4fff90;fill-opacity:1;fill-rule:nonzero;stroke:none"
             d="m 0,0 c 0,-1.803 0.176,-3.543 0.383,-5.333 0.211,-1.825 2.632,-1.829 2.844,0 C 3.434,-3.542 3.609,-1.804 3.609,0 3.609,2.323 0,2.326 0,0" /></g><g
           transform="translate(330.7434,263.1757)"
           id="g334"><path
             id="path336"
             style="fill:#61d5ff;fill-opacity:1;fill-rule:nonzero;stroke:none"
             d="M 0,0 C -0.318,0.681 -1.261,0.98 -1.945,0.792 -2.726,0.577 -3.131,-0.107 -3.21,-0.869 -3.363,-2.346 -2.738,-3.91 -2.186,-5.247 -1.59,-6.69 0.505,-6.559 0.606,-4.869 0.705,-3.227 0.708,-1.519 0,0" /></g><g
           transform="translate(365.4132,250.319)"
           id="g338"><path
             id="path340"
             style="fill:#61d5ff;fill-opacity:1;fill-rule:nonzero;stroke:none"
             d="m 0,0 c -0.035,0.831 -1.157,0.784 -1.258,0 -0.579,-4.495 -1.006,-8.803 -0.957,-13.337 0.014,-1.325 1.9,-1.275 2.024,0 C 0.245,-8.836 0.193,-4.515 0,0" /></g><g
           transform="translate(350.2459,232.3231)"
           id="g342"><path
             id="path344"
             style="fill:#61d5ff;fill-opacity:1;fill-rule:nonzero;stroke:none"
             d="m 0,0 c 0,-2.624 0.153,-5.083 0.512,-7.682 0.173,-1.254 2.358,-1.254 2.531,0 C 3.401,-5.084 3.555,-2.625 3.555,0 3.555,2.287 0,2.291 0,0" /></g><g
           transform="translate(352.9449,205.7419)"
           id="g346"><path
             id="path348"
             style="fill:#61d5ff;fill-opacity:1;fill-rule:nonzero;stroke:none"
             d="m 0,0 c -0.16,0.403 -0.709,0.341 -0.752,-0.102 -0.158,-1.643 -0.181,-3.285 0.31,-4.87 0.254,-0.82 1.489,-0.674 1.504,0.203 C 1.091,-3.104 0.613,-1.54 0,0" /></g><g
           transform="translate(394.6675,215.5349)"
           id="g350"><path
             id="path352"
             style="fill:#af87ff;fill-opacity:1;fill-rule:nonzero;stroke:none"
             d="M 0,0 C -0.182,1.093 -1.534,1.704 -2.523,1.432 -3.682,1.114 -4.138,0.006 -3.955,-1.09 c 0.134,-0.805 0.223,-1.563 0.552,-2.315 0.273,-0.626 0.56,-1.248 0.841,-1.872 0.258,-0.575 1.067,-0.822 1.636,-0.666 0.653,0.18 1.005,0.756 1.064,1.398 0.066,0.707 0.196,1.443 0.2,2.154 C 0.342,-1.596 0.13,-0.782 0,0" /></g><g
           transform="translate(335.647,178.3231)"
           id="g354"><path
             id="path356"
             style="fill:#61d5ff;fill-opacity:1;fill-rule:nonzero;stroke:none"
             d="m 0,0 c -0.135,1.229 -1.779,1.231 -1.914,0 -0.274,-2.484 -0.516,-4.843 -0.219,-7.333 0.18,-1.509 2.171,-1.512 2.352,0 C 0.516,-4.844 0.273,-2.482 0,0" /></g><g
           transform="translate(398.5155,179.6564)"
           id="g358"><path
             id="path360"
             style="fill:#af87ff;fill-opacity:1;fill-rule:nonzero;stroke:none"
             d="m 0,0 c -0.06,0.623 -1.039,0.634 -0.984,0 0.21,-2.449 0.402,-4.895 0.721,-7.333 0.071,-0.54 0.904,-0.578 0.875,0 C 0.487,-4.881 0.235,-2.444 0,0" /></g><g
           transform="translate(376.961,153.0228)"
           id="g362"><path
             id="path364"
             style="fill:#61d5ff;fill-opacity:1;fill-rule:nonzero;stroke:none"
             d="m 0,0 c -0.03,1.066 -0.789,1.952 -1.849,2.095 -0.947,0.127 -2.179,-0.478 -2.34,-1.528 -0.12,-0.782 -0.363,-1.634 -0.257,-2.419 0.088,-0.66 0.318,-1.31 0.495,-1.953 0.194,-0.707 0.876,-1.225 1.608,-1.225 0.794,0 1.325,0.536 1.609,1.225 0.22,0.535 0.526,1.095 0.681,1.653 C 0.134,-1.477 0.019,-0.688 0,0" /></g><g
           transform="translate(360.2995,135.0308)"
           id="g366"><path
             id="path368"
             style="fill:#61d5ff;fill-opacity:1;fill-rule:nonzero;stroke:none"
             d="m 0,0 c -1.267,0.17 -2.299,-0.786 -2.354,-2.041 -0.049,-1.111 -0.098,-2.222 -0.147,-3.333 -0.034,-0.767 0.618,-1.444 1.351,-1.531 0.807,-0.096 1.437,0.368 1.71,1.116 0.389,1.065 0.779,2.13 1.168,3.195 C 2.161,-1.406 1.139,-0.153 0,0" /></g><g
           transform="translate(397.5073,295.8818)"
           id="g370"><path
             id="path372"
             style="fill:#af87ff;fill-opacity:1;fill-rule:nonzero;stroke:none"
             d="m 0,0 c -0.137,0.809 -1.497,0.81 -1.635,0 -0.239,-1.408 -0.506,-2.795 -0.559,-4.225 -0.059,-1.555 0.155,-3.116 0.283,-4.667 0.116,-1.405 2.071,-1.408 2.187,0 0.128,1.548 0.343,3.115 0.284,4.667 C 0.506,-2.797 0.239,-1.406 0,0" /></g><g
           transform="translate(402.0885,258.5829)"
           id="g374"><path
             id="path376"
             style="fill:#af87ff;fill-opacity:1;fill-rule:nonzero;stroke:none"
             d="m 0,0 c -0.292,0.714 -1.252,0.961 -1.699,0.222 -0.694,-1.145 -0.76,-2.653 -0.952,-3.964 -0.226,-1.539 -0.302,-2.959 -0.2,-4.509 0.093,-1.43 2.285,-1.912 2.631,-0.356 0.329,1.477 0.511,2.841 0.53,4.358 C 0.326,-2.891 0.519,-1.269 0,0" /></g><g
           transform="translate(434.8162,302.3231)"
           id="g378"><path
             id="path380"
             style="fill:#af87ff;fill-opacity:1;fill-rule:nonzero;stroke:none"
             d="m 0,0 c 0,1.021 -1.586,1.022 -1.586,0 0,-2.258 -0.292,-4.398 -0.082,-6.667 0.104,-1.124 1.646,-1.126 1.75,0 C 0.292,-4.4 0,-2.256 0,0" /></g><g
           transform="translate(427.3879,252.9897)"
           id="g382"><path
             id="path384"
             style="fill:#af87ff;fill-opacity:1;fill-rule:nonzero;stroke:none"
             d="M 0,0 C -0.224,-2.467 -0.449,-4.856 -0.339,-7.333 -0.259,-9.111 2.452,-9.648 2.884,-7.769 3.477,-5.189 3.698,-2.634 3.938,0 4.167,2.523 0.228,2.507 0,0" /></g><g
           transform="translate(418.5581,244.3062)"
           id="g386"><path
             id="path388"
             style="fill:#af87ff;fill-opacity:1;fill-rule:nonzero;stroke:none"
             d="m 0,0 c -0.152,1.166 -0.939,2.108 -2.23,1.934 -1.218,-0.165 -1.878,-1.293 -1.637,-2.457 0.147,-0.711 0.294,-1.421 0.441,-2.132 0.157,-0.76 0.458,-1.427 0.783,-2.131 0.286,-0.617 1.143,-0.886 1.761,-0.716 0.705,0.194 1.074,0.813 1.144,1.503 C 0.399,-2.639 0.176,-1.351 0,0" /></g><g
           transform="translate(153.7185,277.9)"
           id="g390"><path
             id="path392"
             style="fill:#ffa3d9;fill-opacity:1;fill-rule:nonzero;stroke:none"
             d="m 0,0 c -0.402,-1.876 -0.837,-3.637 -0.828,-5.563 0.006,-1.123 1.71,-1.396 1.988,-0.268 0.461,1.875 0.457,3.681 0.505,5.606 C 1.688,0.716 0.203,0.946 0,0" /></g><g
           transform="translate(147.2097,292.9072)"
           id="g394"><path
             id="path396"
             style="fill:#ffb970;fill-opacity:1;fill-rule:nonzero;stroke:none"
             d="m 0,0 c -0.141,0.87 -0.475,1.731 -0.727,2.577 -0.681,2.288 -4.22,1.329 -3.586,-0.989 0.232,-0.848 0.405,-1.751 0.736,-2.566 0.322,-0.795 0.789,-1.55 1.186,-2.31 0.625,-1.193 2.702,-0.678 2.599,0.704 C 0.144,-1.729 0.137,-0.846 0,0" /></g><g
           transform="translate(441.8106,278.1555)"
           id="g398"><path
             id="path400"
             style="fill:#af87ff;fill-opacity:1;fill-rule:nonzero;stroke:none"
             d="m 0,0 c -0.323,0.907 -1.134,1.54 -2.13,1.391 -0.905,-0.136 -1.737,-0.927 -1.683,-1.907 0.041,-0.762 0.119,-1.469 0.354,-2.196 0.221,-0.68 0.536,-1.319 0.839,-1.965 0.304,-0.648 1.2,-0.933 1.853,-0.754 0.715,0.197 1.173,0.858 1.204,1.582 C 0.496,-2.504 0.456,-1.283 0,0" /></g><g
           transform="translate(438.0008,234.8683)"
           id="g402"><path
             id="path404"
             style="fill:#af87ff;fill-opacity:1;fill-rule:nonzero;stroke:none"
             d="m 0,0 c -0.409,1.956 -3.546,1.957 -3.955,0 -0.445,-2.125 -0.348,-4.281 0.185,-6.373 0.45,-1.77 3.134,-1.772 3.585,0 C 0.348,-4.281 0.444,-2.125 0,0" /></g><g
           transform="translate(171.3566,216.8218)"
           id="g406"><path
             id="path408"
             style="fill:#ffa3d9;fill-opacity:1;fill-rule:nonzero;stroke:none"
             d="m 0,0 c -0.956,0 -1.879,-0.839 -1.832,-1.832 0.028,-0.597 0.036,-1.2 0.099,-1.795 0.068,-0.645 0.29,-1.265 0.467,-1.887 0.355,-1.248 2.176,-1.249 2.532,0 0.176,0.62 0.399,1.244 0.467,1.887 0.063,0.595 0.071,1.198 0.099,1.795 C 1.879,-0.843 0.956,0 0,0" /></g><g
           transform="translate(390.9673,146.3231)"
           id="g410"><path
             id="path412"
             style="fill:#af87ff;fill-opacity:1;fill-rule:nonzero;stroke:none"
             d="m 0,0 c 0.085,-1.243 0.229,-2.463 0.404,-3.697 0.186,-1.305 2.451,-1.306 2.637,0 C 3.216,-2.463 3.36,-1.243 3.445,0 3.597,2.216 -0.152,2.22 0,0" /></g><g
           transform="translate(387.3238,111.6566)"
           id="g414"><path
             id="path416"
             style="fill:#af87ff;fill-opacity:1;fill-rule:nonzero;stroke:none"
             d="m 0,0 c -0.356,3.156 -4.57,3.168 -4.922,0 -0.17,-1.531 -0.44,-3.119 -0.346,-4.667 0.092,-1.526 0.516,-3.057 0.811,-4.552 0.392,-1.98 3.62,-1.986 4.008,0 0.29,1.482 0.737,3.037 0.804,4.552 C 0.425,-3.111 0.174,-1.54 0,0" /></g><g
           transform="translate(251.3566,96.8427)"
           id="g418"><path
             id="path420"
             style="fill:#ffb970;fill-opacity:1;fill-rule:nonzero;stroke:none"
             d="M 0,0 C -0.669,0 -0.67,-1.039 0,-1.039 0.669,-1.039 0.67,0 0,0" /></g><g
           transform="translate(333.1652,84.3231)"
           id="g422"><path
             id="path424"
             style="fill:#61d5ff;fill-opacity:1;fill-rule:nonzero;stroke:none"
             d="m 0,0 c 0.009,-0.222 0.018,-0.444 0.027,-0.667 0.009,-0.211 0.32,-0.211 0.328,0 C 0.365,-0.444 0.374,-0.222 0.383,0 0.393,0.246 -0.01,0.247 0,0" /></g><g
           transform="translate(272.513,371.3979)"
           id="g426"><path
             id="path428"
             style="fill:#3f434a;fill-opacity:1;fill-rule:nonzero;stroke:none"
             d="m 0,0 c 0,-11.046 -8.954,-20 -20,-20 -11.046,0 -20,8.954 -20,20 0,11.046 8.954,20 20,20 C -8.954,20 0,11.046 0,0" /></g><g
           transform="translate(245.4439,356.6221)"
           id="g430"><path
             id="path432"
             style="fill:#61d5ff;fill-opacity:1;fill-rule:nonzero;stroke:none"
             d="M 0,0 C 0.265,1.061 0.513,2.401 0.897,3.663 -0.347,4.304 -1.554,5.038 -2.733,5.818 -3.179,4.552 -3.667,3.298 -4.102,2.041 -4.161,1.871 -4.22,1.712 -4.278,1.544 -3.018,0.609 -1.636,-0.151 -0.186,-0.763 -0.125,-0.509 -0.064,-0.256 0,0" /></g><g
           transform="translate(252.3213,358.2759)"
           id="g434"><path
             id="path436"
             style="fill:#61d5ff;fill-opacity:1;fill-rule:nonzero;stroke:none"
             d="M 0,0 C -1.018,0.143 -2.007,0.382 -2.969,0.708 -3.074,-0.029 -3.202,-0.73 -3.258,-1.284 -3.336,-2.052 -3.406,-2.805 -3.484,-3.549 -2.245,-3.819 -0.976,-3.966 0.303,-4.006 0.139,-2.685 -0.001,-1.338 0,0" /></g><g
           transform="translate(269.2367,363.1574)"
           id="g438"><path
             id="path440"
             style="fill:#61d5ff;fill-opacity:1;fill-rule:nonzero;stroke:none"
             d="M 0,0 C 0.396,0.883 0.683,1.818 0.803,2.817 0.955,4.079 -0.683,4.5 -1.393,3.616 -1.88,3.01 -2.361,2.421 -2.843,1.844 -1.96,1.152 -0.978,0.572 0,0" /></g><g
           transform="translate(267.0737,360.2485)"
           id="g442"><path
             id="path444"
             style="fill:#61d5ff;fill-opacity:1;fill-rule:nonzero;stroke:none"
             d="M 0,0 C -0.855,0.904 -1.66,1.862 -2.313,2.907 -2.956,2.221 -3.61,1.566 -4.304,0.987 c 0.727,-1.052 1.45,-2.108 2.229,-3.124 0.81,0.598 1.548,1.269 2.209,1.995 C 0.089,-0.094 0.042,-0.044 0,0" /></g><g
           transform="translate(261.5373,356.3915)"
           id="g446"><path
             id="path448"
             style="fill:#61d5ff;fill-opacity:1;fill-rule:nonzero;stroke:none"
             d="M 0,0 C -0.517,0.995 -1.038,2.016 -1.445,3.072 -2.583,2.493 -3.822,2.065 -5.228,1.868 c 0.263,-1.207 0.506,-2.42 0.771,-3.624 1.521,0.311 3.084,0.822 4.579,1.512 C 0.081,-0.164 0.041,-0.078 0,0" /></g><g
           transform="translate(238.663,360.3925)"
           id="g450"><path
             id="path452"
             style="fill:#61d5ff;fill-opacity:1;fill-rule:nonzero;stroke:none"
             d="M 0,0 C 0.541,1.238 1.171,2.427 1.88,3.528 0.914,4.204 -0.039,4.881 -0.986,5.523 -1.988,6.203 -3.441,5.102 -2.839,3.959 -2.066,2.491 -1.101,1.174 0,0" /></g><g
           transform="translate(260.7646,368.9901)"
           id="g454"><path
             id="path456"
             style="fill:#ffffff;fill-opacity:1;fill-rule:nonzero;stroke:none"
             d="m 0,0 c -0.682,0.76 -1.94,0.948 -2.793,0.374 -0.954,-0.641 -1.139,-1.642 -0.699,-2.664 0.267,-0.62 1.036,-0.972 1.682,-0.965 0.518,0.006 1.002,0.214 1.377,0.571 l 0.032,0.029 c 0.324,0.163 0.592,0.408 0.751,0.804 C 0.613,-1.198 0.47,-0.523 0,0" /></g><g
           transform="translate(255.2826,380.4505)"
           id="g458"><path
             id="path460"
             style="fill:#ffffff;fill-opacity:1;fill-rule:nonzero;stroke:none"
             d="m 0,0 c -0.595,0.606 -1.283,0.989 -2.01,1.207 -0.021,0.015 -0.033,0.036 -0.055,0.05 -3.272,2.195 -7.121,-1.107 -8.646,-3.957 -0.993,-1.856 -0.898,-4.181 0.646,-5.721 1.441,-1.439 3.626,-1.739 5.531,-1.25 C -0.765,-8.704 3.504,-3.566 0,0" /></g><g
           transform="translate(245.3091,399.2827)"
           id="g462"><path
             id="path464"
             style="fill:#3f434a;fill-opacity:1;fill-rule:nonzero;stroke:none"
             d="m 0,0 c -1.456,1.728 -4.075,1.542 -6.115,1.069 -2.469,-0.574 -4.628,-1.857 -6.074,-3.953 -1.262,-1.831 0.618,-4.153 2.642,-2.943 1.594,0.952 3.21,1.873 4.972,2.474 1.557,0.531 3.237,0.567 4.485,1.688 C 0.318,-1.298 0.35,-0.415 0,0" /></g><g
           transform="translate(325.1254,371.3979)"
           id="g466"><path
             id="path468"
             style="fill:#3f434a;fill-opacity:1;fill-rule:nonzero;stroke:none"
             d="m 0,0 c 0,-11.046 8.954,-20 20,-20 11.046,0 20,8.954 20,20 C 40,11.046 31.046,20 20,20 8.954,20 0,11.046 0,0" /></g><g
           transform="translate(337.3505,356.6221)"
           id="g470"><path
             id="path472"
             style="fill:#61d5ff;fill-opacity:1;fill-rule:nonzero;stroke:none"
             d="M 0,0 C 0.265,1.061 0.513,2.401 0.897,3.663 -0.347,4.304 -1.554,5.038 -2.733,5.818 -3.179,4.552 -3.667,3.298 -4.102,2.041 -4.161,1.871 -4.22,1.712 -4.278,1.544 -3.018,0.609 -1.636,-0.151 -0.186,-0.763 -0.125,-0.509 -0.064,-0.256 0,0" /></g><g
           transform="translate(344.2279,358.2759)"
           id="g474"><path
             id="path476"
             style="fill:#61d5ff;fill-opacity:1;fill-rule:nonzero;stroke:none"
             d="M 0,0 C -1.018,0.143 -2.008,0.382 -2.969,0.708 -3.073,-0.029 -3.202,-0.73 -3.258,-1.284 -3.336,-2.052 -3.406,-2.805 -3.484,-3.549 -2.245,-3.819 -0.976,-3.966 0.303,-4.006 0.139,-2.685 -0.001,-1.338 0,0" /></g><g
           transform="translate(361.1433,363.1574)"
           id="g478"><path
             id="path480"
             style="fill:#61d5ff;fill-opacity:1;fill-rule:nonzero;stroke:none"
             d="M 0,0 C 0.396,0.883 0.683,1.818 0.803,2.817 0.955,4.079 -0.683,4.5 -1.393,3.616 -1.88,3.01 -2.361,2.421 -2.843,1.844 -1.96,1.152 -0.978,0.572 0,0" /></g><g
           transform="translate(358.9804,360.2485)"
           id="g482"><path
             id="path484"
             style="fill:#61d5ff;fill-opacity:1;fill-rule:nonzero;stroke:none"
             d="M 0,0 C -0.855,0.904 -1.66,1.862 -2.313,2.907 -2.956,2.221 -3.61,1.566 -4.304,0.987 c 0.727,-1.052 1.45,-2.108 2.228,-3.124 0.811,0.598 1.549,1.269 2.21,1.995 C 0.089,-0.094 0.042,-0.044 0,0" /></g><g
           transform="translate(353.444,356.3915)"
           id="g486"><path
             id="path488"
             style="fill:#61d5ff;fill-opacity:1;fill-rule:nonzero;stroke:none"
             d="M 0,0 C -0.517,0.995 -1.038,2.016 -1.445,3.072 -2.583,2.493 -3.822,2.065 -5.228,1.868 c 0.263,-1.207 0.506,-2.42 0.771,-3.624 1.521,0.311 3.084,0.822 4.579,1.512 C 0.081,-0.164 0.041,-0.078 0,0" /></g><g
           transform="translate(330.5696,360.3925)"
           id="g490"><path
             id="path492"
             style="fill:#61d5ff;fill-opacity:1;fill-rule:nonzero;stroke:none"
             d="M 0,0 C 0.541,1.238 1.172,2.427 1.88,3.528 0.914,4.204 -0.039,4.881 -0.986,5.523 -1.988,6.203 -3.441,5.102 -2.839,3.959 -2.066,2.491 -1.101,1.174 0,0" /></g><g
           transform="translate(352.6712,368.9901)"
           id="g494"><path
             id="path496"
             style="fill:#ffffff;fill-opacity:1;fill-rule:nonzero;stroke:none"
             d="m 0,0 c -0.682,0.76 -1.94,0.948 -2.793,0.374 -0.954,-0.641 -1.14,-1.642 -0.699,-2.664 0.267,-0.62 1.036,-0.972 1.682,-0.965 0.518,0.006 1.002,0.214 1.377,0.571 l 0.032,0.029 c 0.324,0.163 0.592,0.408 0.751,0.804 C 0.613,-1.198 0.47,-0.523 0,0" /></g><g
           transform="translate(347.1892,380.4505)"
           id="g498"><path
             id="path500"
             style="fill:#ffffff;fill-opacity:1;fill-rule:nonzero;stroke:none"
             d="m 0,0 c -0.595,0.606 -1.283,0.989 -2.01,1.207 -0.021,0.015 -0.033,0.036 -0.055,0.05 -3.272,2.195 -7.121,-1.107 -8.646,-3.957 -0.993,-1.856 -0.898,-4.181 0.646,-5.721 1.441,-1.439 3.626,-1.739 5.531,-1.25 C -0.765,-8.704 3.504,-3.566 0,0" /></g><g
           transform="translate(352.3293,399.2827)"
           id="g502"><path
             id="path504"
             style="fill:#3f434a;fill-opacity:1;fill-rule:nonzero;stroke:none"
             d="M 0,0 C 1.456,1.728 4.075,1.542 6.115,1.069 8.584,0.495 10.744,-0.788 12.189,-2.884 13.451,-4.715 11.571,-7.037 9.547,-5.827 7.953,-4.875 6.337,-3.954 4.575,-3.353 3.018,-2.822 1.338,-2.786 0.09,-1.665 -0.318,-1.298 -0.35,-0.415 0,0" /></g><g
           transform="translate(300.7598,466.0579)"
           id="g506"><path
             id="path508"
             style="fill:#ffffff;fill-opacity:1;fill-rule:nonzero;stroke:none"
             d="m 0,0 c -1.776,11.429 -3.516,22.896 -5.915,34.212 -0.451,2.127 -3.958,1.68 -3.822,-0.517 0.717,-11.545 2.109,-23.058 3.456,-34.545 1.298,-11.079 1.947,-22.574 4.359,-33.475 0.821,-3.71 6.88,-2.939 6.676,0.904 C 4.16,-22.266 1.715,-11.031 0,0" /></g><g
           transform="translate(292.5477,447.2498)"
           id="g510"><path
             id="path512"
             style="fill:#ffb970;fill-opacity:1;fill-rule:nonzero;stroke:none"
             d="m 0,0 c -0.14,6.651 -0.643,13.282 -1.266,19.904 -0.353,3.742 -6.024,3.898 -5.953,0 C -7.1,13.268 -7.173,6.635 -7.318,0 c -0.116,-5.362 -2.026,-12.633 0.807,-17.369 1.18,-1.973 3.705,-1.706 4.938,0 C 1.628,-12.938 0.111,-5.25 0,0" /></g><g
           transform="translate(296.5855,428.1099)"
           id="g514"><path
             id="path516"
             style="fill:#3f434a;fill-opacity:1;fill-rule:nonzero;stroke:none"
             d="m 0,0 c -0.641,-0.1 -1.306,-0.15 -1.978,-0.15 h -0.001 c -3.485,0 -6.945,1.319 -9.491,3.443 5.913,0.022 11.764,2.216 16.196,6.19 3.228,2.896 5.721,6.42 7.268,10.096 0.715,-4.008 1.335,-8.032 1.82,-12.074 C 10.005,3.308 5.477,0.85 0,0 m -4.233,78.69 c 0.818,-2.461 1.632,-4.932 2.44,-7.409 -0.022,-0.106 -0.041,-0.214 -0.045,-0.326 -0.15,-3.858 -2.351,-7.527 -5.579,-9.61 0.98,5.803 2.038,11.588 3.184,17.345 m -6.401,-38.795 c 4.296,1.069 8.197,3.607 10.881,7.141 1.227,1.615 2.622,3.616 3.704,5.83 0.76,-2.584 1.493,-5.177 2.203,-7.777 C 5.856,44.824 5.632,44.47 5.535,44.052 3.421,34.942 -3.716,27.122 -12.533,24.031 c 0.56,5.293 1.2,10.582 1.899,15.864 m 2.432,16.6 c 0.002,0.001 0.005,0.001 0.007,0.002 3.743,1.393 6.826,4.303 8.632,7.85 0.436,-1.378 0.869,-2.759 1.297,-4.142 0.155,-2.874 -1.363,-6.392 -4.672,-10.75 -1.808,-2.381 -4.31,-4.196 -7.11,-5.213 0.572,4.092 1.192,8.176 1.846,12.253 M 2.055,12.461 C -2.224,8.624 -8.343,6.738 -14.05,7.454 c 0.318,4.085 0.688,8.172 1.09,12.259 9.282,2.626 17.164,9.832 20.862,18.737 0.746,-2.955 1.45,-5.92 2.105,-8.895 C 9.841,29.246 9.748,28.893 9.766,28.518 10.024,23.112 7.069,16.959 2.055,12.461 M 17.892,7.083 C 15.773,25.437 11.117,43.366 5.706,60.898 5.699,60.97 5.699,61.041 5.69,61.112 5.654,61.425 5.54,61.708 5.381,61.957 2.756,70.404 -0.034,78.76 -2.797,87.024 c -0.286,0.856 -1.119,1.43 -2.01,1.363 -0.901,-0.052 -1.656,-0.699 -1.843,-1.582 -3.095,-14.605 -5.64,-29.406 -7.66,-44.272 -0.225,-0.384 -0.331,-0.84 -0.257,-1.313 0.011,-0.073 0.034,-0.14 0.053,-0.209 -1.551,-11.628 -2.788,-23.293 -3.66,-34.938 -0.028,-0.373 0.049,-0.747 0.223,-1.078 2.867,-5.47 9.286,-9.145 15.972,-9.145 h 0.001 c 0.877,0 1.749,0.067 2.591,0.197 6.645,1.032 12.302,4.23 16.813,9.506 0.361,0.423 0.53,0.977 0.466,1.53" /></g></g></g></g></svg>
